<?xml version="1.0" encoding="iso-8859-1"?>
<!-- Uploaded to: SVG Repo, www.svgrepo.com, Generator: SVG Repo Mixer Tools -->
<svg version="1.1" id="Layer_1" xmlns="http://www.w3.org/2000/svg" xmlns:xlink="http://www.w3.org/1999/xlink" 
	 viewBox="0 0 512 512" xml:space="preserve">
<g>
	<path style="fill:#77757E;" d="M140.752,86.619V20.791c0-7.252,5.933-13.185,13.185-13.185h202.097
		c7.252,0,13.185,5.933,13.185,13.185v65.828H140.752z"/>
	<path style="fill:#77757E;" d="M108.175,132.845V85.341c0-7.252,5.933-13.185,13.185-13.185h259.64
		c7.252,0,13.185,5.933,13.185,13.185v48.518L108.175,132.845z"/>
</g>
<path style="fill:#3E3B43;" d="M406.196,504.393H105.804c-7.252,0-13.185-5.933-13.185-13.185V137.588
	c0-7.252,5.933-13.185,13.185-13.185h300.391c7.252,0,13.185,5.933,13.185,13.185v353.621
	C419.381,498.46,413.447,504.393,406.196,504.393z"/>
<rect x="92.618" y="212.073" style="fill:#DFDFE2;" width="326.761" height="196.444"/>
<path style="fill:#FF3F62;" d="M253.004,358.105L253.004,358.105c-11.76-11.76-11.76-31.005,0-42.765l27.505-27.505l27.505-27.505
	c11.76-11.76,31.005-11.76,42.765,0l0,0c11.76,11.76,11.76,31.005,0,42.765l-55.008,55.008
	C284.008,369.865,264.764,369.865,253.004,358.105z"/>
<path style="fill:#D80027;" d="M350.777,260.333L350.777,260.333c-11.76-11.76-31.005-11.76-42.765,0l-27.505,27.505l42.765,42.765
	l27.505-27.505C362.537,291.336,362.537,272.093,350.777,260.333z"/>
<g>
	<rect x="148.36" y="72.152" style="fill:#3E3B43;" width="15.213" height="52.242"/>
	<rect x="197.093" y="72.152" style="fill:#3E3B43;" width="15.213" height="52.242"/>
	<rect x="245.826" y="72.152" style="fill:#3E3B43;" width="15.213" height="52.242"/>
	<rect x="294.57" y="72.152" style="fill:#3E3B43;" width="15.213" height="52.242"/>
	<rect x="343.303" y="72.152" style="fill:#3E3B43;" width="15.213" height="52.242"/>
</g>
<circle style="fill:#52A2E7;" cx="182.458" cy="287.835" r="33.468"/>
<path style="fill:#4E8FE3;" d="M182.558,254.368c-18.484,0-33.468,14.984-33.468,33.468c0,7.97,2.79,15.284,7.44,21.032
	l53.424-40.244C203.901,260.006,193.891,254.368,182.558,254.368z"/>
<g>
	<rect x="140.753" y="51.283" style="opacity:0.53;fill:#3E3B43;enable-background:new    ;" width="228.463" height="20.874"/>
	<rect x="108.177" y="103.004" style="opacity:0.53;fill:#3E3B43;enable-background:new    ;" width="286.01" height="22.126"/>
</g>
<rect x="92.618" y="408.517" style="fill:#2F2D30;" width="326.761" height="22.966"/>
<polygon style="opacity:0.2;fill:#FFFFFF;enable-background:new    ;" points="419.381,263.382 94.736,456.083 94.736,355.882 
	419.381,163.181 "/>
<path d="M406.196,116.796h-4.405V85.341c0-11.465-9.327-20.791-20.791-20.791h-3.159V20.791C377.84,9.327,368.513,0,357.049,0
	H154.951c-11.465,0-20.791,9.327-20.791,20.791V64.55h-12.8c-11.465,0-20.791,9.327-20.791,20.791v32.149
	c-8.933,2.331-15.555,10.444-15.555,20.098v74.482v196.443v82.695c0,11.465,9.327,20.792,20.791,20.792h300.391
	c11.465,0,20.791-9.327,20.791-20.792v-82.695V212.07v-74.482C426.987,126.123,417.659,116.796,406.196,116.796z M386.578,85.341
	v31.455h-28.06V79.763h22.482C384.076,79.763,386.578,82.265,386.578,85.341z M309.781,116.796V79.763h33.523v37.033H309.781z
	 M261.045,116.796V79.763h33.523v37.033H261.045z M212.308,116.796V79.763h33.523v37.033H212.308z M163.572,116.796V79.763h33.523
	v37.033H163.572z M149.373,20.791c0-3.076,2.502-5.578,5.578-5.578h202.097c3.076,0,5.578,2.502,5.578,5.578V64.55H149.373V20.791z
	 M121.359,79.763h27v37.033h-32.578V85.341C115.781,82.265,118.283,79.763,121.359,79.763z M105.804,132.01h300.391
	c3.076,0,5.578,2.502,5.578,5.578v66.876H100.226v-66.876C100.226,134.512,102.728,132.01,105.804,132.01z M411.774,400.907H100.226
	v-181.23h311.548L411.774,400.907L411.774,400.907z M406.196,496.787H105.804c-3.076,0-5.578-2.502-5.578-5.578V416.12h311.548
	v75.089C411.774,494.284,409.271,496.787,406.196,496.787z"/>
<path d="M274.386,374.551c9.692,0,19.383-3.689,26.761-11.067l55.008-55.008c7.124-7.124,11.048-16.628,11.048-26.761
	s-3.924-19.636-11.049-26.761c-14.756-14.756-38.766-14.756-53.521,0l-55.008,55.008c-7.125,7.124-11.049,16.628-11.049,26.761
	c0,10.132,3.924,19.636,11.049,26.761C255.003,370.862,264.695,374.551,274.386,374.551z M313.391,265.711
	c4.413-4.413,10.207-6.618,16.004-6.618c5.795,0,11.591,2.207,16.003,6.618c8.825,8.825,8.825,23.183,0,32.008l-22.126,22.125
	l-32.008-32.008L313.391,265.711z M258.382,320.719l22.125-22.126l32.008,32.008l-22.125,22.125c-8.825,8.824-23.182,8.824-32.008,0
	c-4.251-4.252-6.592-9.934-6.592-16.003S254.132,324.971,258.382,320.719z"/>
<path d="M149.846,313.737c0.764,1.034,1.74,1.813,2.823,2.334c7.49,7.899,18.07,12.84,29.79,12.84
	c22.649,0,41.075-18.425,41.075-41.075c0-8.267-2.464-15.966-6.683-22.417c-0.151-0.268-0.314-0.531-0.502-0.785
	c-0.047-0.063-0.099-0.119-0.148-0.181c-7.424-10.681-19.776-17.692-33.741-17.692c-22.649,0-41.075,18.426-41.075,41.075
	c0,8.596,2.658,16.578,7.19,23.181C148.805,311.973,149.226,312.898,149.846,313.737z M182.459,313.698
	c-5.192,0-10.027-1.543-14.082-4.187l38.948-28.759c0.643,2.254,0.995,4.628,0.995,7.084
	C208.32,302.096,196.719,313.698,182.459,313.698z M182.459,261.975c6.29,0,12.061,2.26,16.549,6.007l-40.405,29.834
	c-1.29-3.073-2.005-6.444-2.005-9.98C156.597,273.576,168.199,261.975,182.459,261.975z"/>
</svg>