<?xml version="1.0" encoding="iso-8859-1"?>
<!-- Uploaded to: SVG Repo, www.svgrepo.com, Generator: SVG Repo Mixer Tools -->
<svg height="800px" width="800px" version="1.1" id="Layer_1" xmlns="http://www.w3.org/2000/svg" xmlns:xlink="http://www.w3.org/1999/xlink" 
	 viewBox="0 0 511.918 511.918" xml:space="preserve">
<g>
	<path style="fill:#F87C51;" d="M352.906,511.918H159.017c-34.216,0-61.952-27.736-61.952-61.952V203.111
		c0-34.216,27.736-61.952,61.952-61.952h193.889c34.216,0,61.952,27.736,61.952,61.952v246.855
		C414.858,484.182,387.122,511.918,352.906,511.918"/>
	<path style="fill:#FFA700;" d="M388.247,106.055l-264.572-0.282c-9.825,0-17.788-7.962-17.788-17.788V17.779
		C105.887,7.954,113.85,0,123.675,0l264.572,0.282c9.825,0,17.779,7.962,17.779,17.779v70.215
		C406.025,98.092,398.072,106.055,388.247,106.055"/>
	<polygon style="fill:#EF6E35;" points="158.853,141.082 353.06,141.082 353.06,105.772 158.853,105.772 	"/>
	<polygon style="fill:#F3D55B;" points="97.06,423.724 414.853,423.724 414.853,229.517 97.06,229.517 	"/>
	<path style="fill:#FFA700;" d="M238.3,397.238c-2.03,0-4.078-0.697-5.738-2.127c-3.708-3.169-4.131-8.739-0.962-12.447
		l40.474-47.219h-51.43c-3.443,0-6.577-2.013-8.015-5.138c-1.439-3.134-0.927-6.815,1.315-9.437l52.966-61.793
		c3.187-3.69,8.748-4.131,12.447-0.953c3.708,3.169,4.131,8.739,0.962,12.447l-40.474,47.219h51.421
		c3.452,0,6.585,2.013,8.024,5.138c1.439,3.134,0.927,6.815-1.315,9.437l-52.966,61.793
		C243.261,396.187,240.79,397.238,238.3,397.238"/>
	<g>
		<path style="fill:#F3D55B;" d="M308.951,26.479h-0.026c-4.864,0-8.81,3.937-8.828,8.801c-0.009,4.873,3.928,8.845,8.801,8.854
			l97.103,0.282h0.026V26.762L308.951,26.479z"/>
		<path style="fill:#F3D55B;" d="M361.947,61.79h-0.053c-4.855,0-8.801,3.911-8.828,8.775c-0.035,4.873,3.893,8.854,8.766,8.881
			l44.138,0.282h0.062V62.072L361.947,61.79z"/>
		<path style="fill:#F3D55B;" d="M150.029,44.134c4.873,0,8.828-3.955,8.828-8.828s-3.955-8.828-8.828-8.828h-44.138v17.655H150.029
			z"/>
		<path style="fill:#F3D55B;" d="M202.994,79.445c4.873,0,8.828-3.955,8.828-8.828c0-4.873-3.955-8.828-8.828-8.828h-97.103v17.655
			H202.994z"/>
	</g>
</g>
</svg>