<?xml version="1.0" encoding="iso-8859-1"?>
<!-- Uploaded to: SVG Repo, www.svgrepo.com, Generator: SVG Repo Mixer Tools -->
<svg version="1.1" id="Layer_1" xmlns="http://www.w3.org/2000/svg" xmlns:xlink="http://www.w3.org/1999/xlink" 
	 viewBox="0 0 507.6 507.6" xml:space="preserve">
<path style="fill:#FF7043;" d="M122.182,422.8v52.4l0.8,9.2c2,9.2,10.4,17.2,20.4,17.2h224.4c10,0,18.4-8,20.4-17.2V158.8
	c0-1.6-0.4-4.4-0.4-4.4h-264.4c-0.4,0-1.2,0.8-1.2,2.4v72.8L122.182,422.8L122.182,422.8z"/>
<path style="fill:#FFCC80;" d="M382.582,142l-58.4-56h-137.6l-58,56c0,0-6.8,4.8-8.4,13.2h266
	C384.182,147.2,382.582,142.4,382.582,142z"/>
<path style="fill:#2E7D32;" d="M384.182,483.6c0.4-1.2,0.4-2.8,0.4-4l0,0v-4L384.182,483.6z"/>
<rect x="122.182" y="235.6" style="fill:#B2DFDB;" width="170.4" height="181.6"/>
<path style="fill:#BF360C;" d="M335.782,17.6c0-6.8-5.6-12-12-12h-141.2c-6.8,0-12,5.6-12,12V70c0,6.8,5.6,12,12,12h141.2
	c6.8,0,12-5.6,12-12V17.6z"/>
<path d="M321.382,88.4h-137.2c-11.2,0-20-9.2-20-20V20c0-11.2,9.2-20,20-20h137.2c11.2,0,20,9.2,20,20v48.4
	C341.382,79.2,332.582,88.4,321.382,88.4z M184.182,7.6c-6.8,0-12,5.6-12,12V68c0,6.8,5.6,12,12,12h137.2c6.8,0,12-5.6,12-12V19.6
	c0-6.8-5.6-12-12-12H184.182z"/>
<path d="M323.382,483.6h-201.6c-2.4,0-4-1.6-4-4s1.6-4,4-4h201.6c2.4,0,4,1.6,4,4S325.382,483.6,323.382,483.6z"/>
<path d="M383.782,483.6h-24c-2.4,0-4-1.6-4-4s1.6-4,4-4h24c2.4,0,4,1.6,4,4S386.182,483.6,383.782,483.6z"/>
<path d="M292.982,422.8h-171.2c-2.4,0-4-1.6-4-4s1.6-4,4-4h167.2V237.6h-167.2c-2.4,0-4-1.6-4-4s1.6-4,4-4h171.2c2.4,0,4,1.6,4,4
	v185.6C296.982,421.2,295.382,422.8,292.982,422.8z"/>
<path d="M364.582,507.6h-217.6c-15.6,0-31.2-14.8-31.2-30.4V158.8c0-14,10.4-22.4,10.8-22.8l56-54.8c1.6-1.6,4-1.6,5.6,0
	s1.6,4,0,5.6l-56.4,54.8c-0.4,0.4-8.4,6.8-8.4,16.8v318.4c0,11.2,11.6,22.4,23.2,22.4h217.6c10.8,0,20-10,20-21.2l-0.4-318.4
	c0-10-6.8-17.6-7.2-17.6l-54-54c-1.6-1.6-1.6-4,0-5.6s4-1.6,5.6,0l54,54c0.4,0.4,9.2,10,9.2,23.2l0.4,318.4
	C392.582,494.4,379.782,507.6,364.582,507.6z"/>
<path d="M383.782,156.8h-229.6c-2.4,0-4-1.6-4-4s1.6-4,4-4h230c2.4,0,4,1.6,4,4S386.182,156.8,383.782,156.8z"/>
</svg>